<svg xmlns="http://www.w3.org/2000/svg" width="12" height="14" viewBox="0 0 12 14">
  <g id="notification" transform="translate(0 0)">
    <path id="Path_864" data-name="Path 864" d="M41.132,7.188V5.879A4.234,4.234,0,0,0,38.2,1.823V1.23a1.2,1.2,0,1,0-2.4,0v.593a4.234,4.234,0,0,0-2.933,4.056V7.188a6.528,6.528,0,0,1-1.755,4.478.418.418,0,0,0-.079.445.4.4,0,0,0,.368.249h3.64a1.991,1.991,0,0,0,3.92,0H42.6a.4.4,0,0,0,.368-.249.418.418,0,0,0-.079-.445A6.528,6.528,0,0,1,41.132,7.188ZM36.6,1.23a.4.4,0,1,1,.8,0v.43c-.132-.013-.265-.02-.4-.02s-.268.007-.4.02ZM37,13.18a1.2,1.2,0,0,1-1.131-.82H38.13A1.2,1.2,0,0,1,37,13.18Zm-4.738-1.641a7.375,7.375,0,0,0,1.4-4.351V5.879a3.334,3.334,0,1,1,6.667,0V7.188a7.374,7.374,0,0,0,1.4,4.351Z" transform="translate(-30.999 0)" fill="#1d8295"/>
    <path id="Path_865" data-name="Path 865" d="M391.234,56.137a.425.425,0,1,0,.85,0,6.33,6.33,0,0,0-1.866-4.506.425.425,0,0,0-.6.6A5.486,5.486,0,0,1,391.234,56.137Z" transform="translate(-380.084 -50.048)" fill="#1d8295"/>
    <path id="Path_866" data-name="Path 866" d="M31.425,56.562a.425.425,0,0,0,.425-.425,5.486,5.486,0,0,1,1.617-3.9.425.425,0,0,0-.6-.6A6.33,6.33,0,0,0,31,56.138.425.425,0,0,0,31.425,56.562Z" transform="translate(-31 -50.049)" fill="#1d8295"/>
  </g>
</svg>
