<svg xmlns="http://www.w3.org/2000/svg" xmlns:xlink="http://www.w3.org/1999/xlink" width="78" height="34" viewBox="0 0 78 34">
  <defs>
    <clipPath id="clip-path">
      <rect id="Rectangle_223" data-name="Rectangle 223" width="78" height="34" transform="translate(0.313 0.298)" fill="#1d8295"/>
    </clipPath>
  </defs>
  <g id="Group_849" data-name="Group 849" transform="translate(-0.313 -0.297)">
    <g id="Group_848" data-name="Group 848" transform="translate(0 0)" clip-path="url(#clip-path)">
      <path id="Path_836" data-name="Path 836" d="M18.01,28.988V40.022H13.715V29.717c0-2.476-1.109-4.115-3.429-4.115a3.966,3.966,0,0,0-3.914,3.2V40.022H2.078v-13c0-.838-.381-1.129-1.039-1.129A2.978,2.978,0,0,0,.173,26L0,22.215a5.972,5.972,0,0,1,2.563-.509A3.392,3.392,0,0,1,6.2,24.218a6.165,6.165,0,0,1,5.507-2.768c3.983,0,6.3,2.731,6.3,7.538" transform="translate(0 -13.074)" fill="#1d8295"/>
      <path id="Path_837" data-name="Path 837" d="M60.618,3.919a2.827,2.827,0,1,1,5.646,0,2.825,2.825,0,1,1-5.646,0m.658,19.956V9.491h4.295V22.6a.957.957,0,0,0,1.039,1.092,1.9,1.9,0,0,0,.831-.146l.208,3.824a6.089,6.089,0,0,1-2.6.474c-2.459,0-3.775-1.384-3.775-3.969" transform="translate(-38.106 -0.569)" fill="#1d8295"/>
      <path id="Path_838" data-name="Path 838" d="M92.506,6.737V8.994h3.325v3.824H92.506V26.948H88.212V12.818H85.891v-3.9h2.321V6.955C88.212,2.258,90.74,0,93.961,0a5.316,5.316,0,0,1,3.256.874L95.831,4.7A2.115,2.115,0,0,0,94.55,4.37c-1.143,0-2.044.655-2.044,2.367" transform="translate(-53.994 0)" fill="#1d8295"/>
      <path id="Path_839" data-name="Path 839" d="M135.882,31.769a6.255,6.255,0,0,1-4.953,2.112c-4.121,0-6.338-2.112-6.338-6.373V19.242h-3.429V15.6c3.291-.073,4.087-1.166,4.225-5.062h3.463v4.807H134.7v3.9h-5.854v7.5c0,2.039,1,2.95,2.667,2.95a3.048,3.048,0,0,0,2.32-1.056Z" transform="translate(-76.166 -6.424)" fill="#1d8295"/>
      <path id="Path_840" data-name="Path 840" d="M184.1,22.85V39.929c0,5.863-3.394,8.594-8.97,8.594-3.567,0-5.854-1.02-7.343-2.695l2.355-3.35a6.3,6.3,0,0,0,4.918,1.966c2.944,0,4.745-1.275,4.745-4.115V37.744a6.032,6.032,0,0,1-5.265,2.84c-4.018,0-6.1-2.695-6.1-7.028V22.85h4.294v9.8c0,2.294,1,3.642,3.118,3.642a4.28,4.28,0,0,0,3.948-2.913V22.85Z" transform="translate(-105.479 -13.928)" fill="#1d8295"/>
    </g>
  </g>
</svg>
