<svg id="settings" xmlns="http://www.w3.org/2000/svg" width="12" height="12" viewBox="0 0 12 12">
  <path id="Path_867" data-name="Path 867" d="M6.377,12H5.623a1.106,1.106,0,0,1-1.1-1.1v-.255a4.844,4.844,0,0,1-.752-.312l-.181.181a1.1,1.1,0,0,1-1.562,0l-.532-.532a1.1,1.1,0,0,1,0-1.562l.18-.18a4.845,4.845,0,0,1-.312-.752H1.1A1.106,1.106,0,0,1,0,6.377V5.623a1.106,1.106,0,0,1,1.1-1.1h.255a4.846,4.846,0,0,1,.312-.752l-.181-.181a1.1,1.1,0,0,1,0-1.562l.532-.532a1.1,1.1,0,0,1,1.562,0l.18.18a4.849,4.849,0,0,1,.752-.312V1.1A1.106,1.106,0,0,1,5.623,0h.753a1.106,1.106,0,0,1,1.1,1.1v.255a4.844,4.844,0,0,1,.752.312l.181-.181a1.1,1.1,0,0,1,1.562,0l.532.532a1.1,1.1,0,0,1,0,1.562l-.18.18a4.845,4.845,0,0,1,.312.752H10.9a1.106,1.106,0,0,1,1.1,1.1v.753a1.106,1.106,0,0,1-1.1,1.1h-.255a4.846,4.846,0,0,1-.312.752l.181.181a1.1,1.1,0,0,1,0,1.562l-.532.532a1.1,1.1,0,0,1-1.562,0l-.18-.18a4.849,4.849,0,0,1-.752.312V10.9A1.106,1.106,0,0,1,6.377,12ZM3.884,9.59a4.144,4.144,0,0,0,1.074.446.352.352,0,0,1,.264.34V10.9a.4.4,0,0,0,.4.4h.753a.4.4,0,0,0,.4-.4v-.519a.352.352,0,0,1,.264-.34A4.144,4.144,0,0,0,8.116,9.59a.352.352,0,0,1,.428.054l.368.368a.4.4,0,0,0,.568,0l.533-.533a.4.4,0,0,0,0-.568l-.368-.368a.352.352,0,0,1-.054-.428,4.143,4.143,0,0,0,.446-1.074.352.352,0,0,1,.34-.264H10.9a.4.4,0,0,0,.4-.4V5.623a.4.4,0,0,0-.4-.4h-.519a.352.352,0,0,1-.34-.264A4.144,4.144,0,0,0,9.59,3.884a.352.352,0,0,1,.054-.428l.368-.368a.4.4,0,0,0,0-.568l-.533-.533a.4.4,0,0,0-.568,0l-.368.368a.352.352,0,0,1-.428.054,4.144,4.144,0,0,0-1.074-.446.352.352,0,0,1-.264-.34V1.1a.4.4,0,0,0-.4-.4H5.623a.4.4,0,0,0-.4.4v.519a.352.352,0,0,1-.264.34,4.144,4.144,0,0,0-1.074.446.352.352,0,0,1-.428-.054l-.368-.368a.4.4,0,0,0-.568,0l-.533.533a.4.4,0,0,0,0,.568l.368.368a.352.352,0,0,1,.054.428,4.143,4.143,0,0,0-.446,1.074.352.352,0,0,1-.34.264H1.1a.4.4,0,0,0-.4.4v.753a.4.4,0,0,0,.4.4h.519a.352.352,0,0,1,.34.264A4.144,4.144,0,0,0,2.41,8.116a.352.352,0,0,1-.054.428l-.368.368a.4.4,0,0,0,0,.568l.533.533a.4.4,0,0,0,.568,0l.368-.368a.353.353,0,0,1,.428-.054Z" transform="translate(0 0)" fill="#1d8295"/>
  <path id="Path_868" data-name="Path 868" d="M147.755,150.91a3.155,3.155,0,1,1,3.155-3.155A3.158,3.158,0,0,1,147.755,150.91Zm0-5.46a2.305,2.305,0,1,0,2.305,2.305A2.308,2.308,0,0,0,147.755,145.45Z" transform="translate(-141.755 -141.755)" fill="#1d8295"/>
</svg>
