<svg xmlns="http://www.w3.org/2000/svg" width="17.226" height="12.511" viewBox="0 0 17.226 12.511">
  <g id="handshake" opacity="0.5">
    <g id="Group_1086" data-name="Group 1086" transform="translate(5.284 0.014)">
      <g id="Group_1085" data-name="Group 1085">
        <path id="Path_849" data-name="Path 849" d="M166.357,72.133a.356.356,0,0,1-.179.083,6.6,6.6,0,0,1-3.317-.4,4.6,4.6,0,0,0-1.4-.315,3.447,3.447,0,0,0-1.9.755c-.131.086-.259.17-.385.247l-1.87,1.87a.84.84,0,0,0,.594,1.434h.287a.832.832,0,0,0,.529-.187c.137-.112.295-.243.464-.385a10.168,10.168,0,0,1,2.16-1.559.351.351,0,0,1,.126-.023.358.358,0,0,1,.235.088l5.187,4.5,2.114-.838V70.488Z" transform="translate(-157.053 -70.488)" fill="#1d8295"/>
      </g>
    </g>
    <g id="Group_1088" data-name="Group 1088" transform="translate(2.153 7.488)">
      <g id="Group_1087" data-name="Group 1087">
        <path id="Path_850" data-name="Path 850" d="M65.093,292.632a.7.7,0,0,0-.584.312l-.392.588a.7.7,0,0,0-.118.389v.163a.7.7,0,0,0,1.285.389l.392-.588a.7.7,0,0,0,.118-.389v-.163A.7.7,0,0,0,65.093,292.632Z" transform="translate(-64 -292.632)" fill="#1d8295"/>
      </g>
    </g>
    <g id="Group_1090" data-name="Group 1090" transform="translate(3.23 8.206)">
      <g id="Group_1089" data-name="Group 1089">
        <path id="Path_851" data-name="Path 851" d="M97.452,313.965h-.024a.7.7,0,0,0-.561.281l-.726.968a.7.7,0,0,0-.141.421v.141a.7.7,0,0,0,.7.7h.024a.7.7,0,0,0,.561-.281l.726-.968a.7.7,0,0,0,.141-.421v-.141A.7.7,0,0,0,97.452,313.965Z" transform="translate(-96 -313.965)" fill="#1d8295"/>
      </g>
    </g>
    <g id="Group_1092" data-name="Group 1092" transform="translate(4.665 8.924)">
      <g id="Group_1091" data-name="Group 1091">
        <path id="Path_852" data-name="Path 852" d="M140.119,335.3h-.024a.7.7,0,0,0-.561.281l-.726.968a.7.7,0,0,0-.141.421v.141a.7.7,0,0,0,.7.7h.024a.7.7,0,0,0,.561-.281l.726-.968a.7.7,0,0,0,.141-.421V336A.7.7,0,0,0,140.119,335.3Z" transform="translate(-138.667 -335.299)" fill="#1d8295"/>
      </g>
    </g>
    <g id="Group_1094" data-name="Group 1094" transform="translate(6.101 9.641)">
      <g id="Group_1093" data-name="Group 1093">
        <path id="Path_853" data-name="Path 853" d="M182.786,356.632h-.024a.7.7,0,0,0-.561.281l-.726.968a.7.7,0,0,0-.141.421v.141a.7.7,0,0,0,.7.7h.024a.7.7,0,0,0,.561-.281l.726-.968a.7.7,0,0,0,.14-.421v-.141h0A.7.7,0,0,0,182.786,356.632Z" transform="translate(-181.334 -356.632)" fill="#1d8295"/>
      </g>
    </g>
    <g id="Group_1096" data-name="Group 1096" transform="translate(8.226 11.23)">
      <g id="Group_1095" data-name="Group 1095">
        <path id="Path_854" data-name="Path 854" d="M245.667,404.4l-.65-.553c-.022.034-.032.074-.055.106l-.462.615.483.448a.362.362,0,0,0,.516.009C245.679,404.842,245.75,404.5,245.667,404.4Z" transform="translate(-244.501 -403.843)" fill="#1d8295"/>
      </g>
    </g>
    <g id="Group_1098" data-name="Group 1098" transform="translate(0 0)">
      <g id="Group_1097" data-name="Group 1097">
        <path id="Path_855" data-name="Path 855" d="M14.856,78.6,9.63,74.026a15.243,15.243,0,0,0-1.766,1.349c-.171.144-.331.277-.47.39a1.536,1.536,0,0,1-.983.349H6.124a1.558,1.558,0,0,1-1.1-2.659l2-1.976c.1-.062.207-.131.312-.2a10.792,10.792,0,0,0-3.833-.021,2.513,2.513,0,0,1-2.01-.549L0,70.061v6.925l1.866.776.2-.3a1.412,1.412,0,0,1,2.418.107,1.262,1.262,0,0,1,.173-.021,1.433,1.433,0,0,1,1.261.739,1.311,1.311,0,0,1,.174-.021,1.433,1.433,0,0,1,1.261.739,1.413,1.413,0,0,1,.174-.021h.025A1.421,1.421,0,0,1,8.972,80.4v.14l.9.766,0,0,.343.291a1.176,1.176,0,0,0,.727.251.537.537,0,0,0,.344-.95L8.024,78.184a.359.359,0,1,1,.46-.551L12.519,81a.619.619,0,0,0,.395.142h.106a.619.619,0,0,0,.408-1.082L9.459,76.749a.359.359,0,0,1,.46-.552l3.955,3.3.019.016.059.049a.622.622,0,0,0,.4.145h.1a.627.627,0,0,0,.408-1.1Z" transform="translate(0 -70.061)" fill="#1d8295"/>
      </g>
    </g>
  </g>
</svg>
