<svg xmlns="http://www.w3.org/2000/svg" width="22.109" height="17.594" viewBox="0 0 22.109 17.594">
  <g id="home" transform="translate(0.001 -46.994)" opacity="0.5">
    <g id="Group_1080" data-name="Group 1080" transform="translate(-0.001 46.994)">
      <path id="Path_845" data-name="Path 845" d="M73.6,120.939l-7.885,6.5a.186.186,0,0,1-.007.041.188.188,0,0,0-.007.041V134.1a.89.89,0,0,0,.878.878h5.266v-5.266h3.511v5.266h5.266a.891.891,0,0,0,.878-.878v-6.582a.193.193,0,0,0-.014-.082Z" transform="translate(-62.542 -117.387)" fill="#1d8295"/>
      <path id="Path_846" data-name="Path 846" d="M21.955,55.565l-3-2.5V47.474a.423.423,0,0,0-.439-.439H15.881a.422.422,0,0,0-.439.439v2.674l-3.346-2.8a1.7,1.7,0,0,0-2.084,0L.152,55.565A.4.4,0,0,0,0,55.86a.444.444,0,0,0,.1.322L.947,57.2a.468.468,0,0,0,.288.151.51.51,0,0,0,.329-.1l9.489-7.913,9.489,7.913a.423.423,0,0,0,.288.1h.041a.468.468,0,0,0,.288-.151l.85-1.015a.444.444,0,0,0,.1-.323A.4.4,0,0,0,21.955,55.565Z" transform="translate(0.001 -46.994)" fill="#1d8295"/>
    </g>
  </g>
</svg>
