<svg xmlns="http://www.w3.org/2000/svg" width="17.226" height="16.956" viewBox="0 0 17.226 16.956">
  <g id="conversation" opacity="0.5">
    <g id="Group_1082" data-name="Group 1082" transform="translate(0 8.14)">
      <g id="Group_1081" data-name="Group 1081">
        <path id="Path_847" data-name="Path 847" d="M3.812,251.015a8.245,8.245,0,0,1-2.443-5.054,5.264,5.264,0,0,0-1.14,3.289,5.324,5.324,0,0,0,.512,2.267l-.689,2.005a.948.948,0,0,0,.892,1.255.954.954,0,0,0,.31-.052l2.005-.689a5.324,5.324,0,0,0,2.267.512,5.266,5.266,0,0,0,3.343-1.183A8.252,8.252,0,0,1,3.812,251.015Z" transform="translate(0 -245.961)" fill="#1d8295"/>
      </g>
    </g>
    <g id="Group_1084" data-name="Group 1084" transform="translate(2.35 0)">
      <g id="Group_1083" data-name="Group 1083">
        <path id="Path_848" data-name="Path 848" d="M84.656,17.4l-1-2.912A7.284,7.284,0,0,0,77.236,4.012a7.276,7.276,0,1,0-.118,14.551h.011a7.3,7.3,0,0,0,3.185-.739l2.912,1a1.134,1.134,0,0,0,.369.062A1.126,1.126,0,0,0,84.656,17.4Zm-6.835-3.584H74.064a.513.513,0,0,1,0-1.025h3.757a.513.513,0,0,1,0,1.025ZM80.172,11.7H74.064a.513.513,0,0,1,0-1.025h6.108a.513.513,0,0,1,0,1.025Zm0-2.108H74.064a.513.513,0,0,1,0-1.025h6.108a.513.513,0,0,1,0,1.025Z" transform="translate(-69.842 -4.011)" fill="#1d8295"/>
      </g>
    </g>
  </g>
</svg>
