<svg xmlns="http://www.w3.org/2000/svg" width="11.494" height="17.226" viewBox="0 0 11.494 17.226">
  <g id="hot-air-balloon" opacity="0.5">
    <g id="Group_1108" data-name="Group 1108" transform="translate(3.758 0.555)">
      <g id="Group_1107" data-name="Group 1107">
        <path id="Path_860" data-name="Path 860" d="M200.8,20.214a6.88,6.88,0,0,0-1.036-3.137.949.949,0,0,0-1.752,0,6.88,6.88,0,0,0-1.036,3.137,10.065,10.065,0,0,0,.3,4l1.171,3.865h.89l1.171-3.865A10.066,10.066,0,0,0,200.8,20.214Z" transform="translate(-196.897 -16.494)" fill="#1d8295"/>
      </g>
    </g>
    <g id="Group_1110" data-name="Group 1110" transform="translate(6.942)">
      <g id="Group_1109" data-name="Group 1109">
        <path id="Path_861" data-name="Path 861" d="M295.364,2.854A5.775,5.775,0,0,0,293.342.719,5.637,5.637,0,0,0,291.529,0a3.016,3.016,0,0,1,.5.532,7.885,7.885,0,0,1,1.229,3.623,11.1,11.1,0,0,1-.332,4.415l-1.082,3.57h1.144L295.176,8.7a5.686,5.686,0,0,0,.188-5.842Z" transform="translate(-291.529)" fill="#1d8295"/>
      </g>
    </g>
    <g id="Group_1112" data-name="Group 1112" transform="translate(0)">
      <g id="Group_1111" data-name="Group 1111">
        <path id="Path_862" data-name="Path 862" d="M89.239.533a3.017,3.017,0,0,1,.5-.533,5.636,5.636,0,0,0-1.813.719A5.728,5.728,0,0,0,86.09,8.7L88.28,12.14h1.144L88.342,8.57a11.1,11.1,0,0,1-.332-4.415A7.885,7.885,0,0,1,89.239.533Z" transform="translate(-85.185)" fill="#1d8295"/>
      </g>
    </g>
    <g id="Group_1114" data-name="Group 1114" transform="translate(3.643 13.157)">
      <g id="Group_1113" data-name="Group 1113">
        <path id="Path_863" data-name="Path 863" d="M196.6,391.051l-.405,1.357h-1.277l-.4-1.357h-1.061l.579,1.94v2.13h3.051v-2.129l.579-1.94Z" transform="translate(-193.451 -391.051)" fill="#1d8295"/>
      </g>
    </g>
  </g>
</svg>
