<svg xmlns="http://www.w3.org/2000/svg" width="17.934" height="17.899" viewBox="0 0 17.934 17.899">
  <path id="replace" d="M17.933,9.432v.035a8.938,8.938,0,0,1-1.408,4.791.7.7,0,1,1-1.18-.755A7.543,7.543,0,1,0,2.532,5.541l1.6,0a.7.7,0,0,1,0,1.4h0l-2.05,0a2.052,2.052,0,0,1-1.469-.6A2.1,2.1,0,0,1,0,4.834V2.812a.7.7,0,1,1,1.4,0v1.9A8.966,8.966,0,0,1,9,.5a8.937,8.937,0,0,1,8.932,8.932Zm-4.6,6.207A7.519,7.519,0,0,1,9,17H8.966c-.106,0-.214,0-.321-.007a.7.7,0,1,0-.058,1.4c.126.005.254.008.379.008H9a8.913,8.913,0,0,0,5.13-1.611.7.7,0,0,0-.8-1.149Zm-9.917-1.07a.7.7,0,1,0-1.028.951c.158.171.325.337.5.5a.7.7,0,0,0,.952-1.029c-.144-.134-.285-.274-.419-.419Zm-1.54-2.5a.7.7,0,1,0-1.314.488c.081.218.172.436.27.647A.7.7,0,1,0,2.1,12.611c-.083-.178-.159-.361-.227-.545Zm4.463,4.462c-.184-.068-.368-.145-.546-.227a.7.7,0,0,0-.59,1.271c.211.1.429.189.648.27a.7.7,0,0,0,.487-1.314Zm-5.6-6.046a.7.7,0,0,0,.671-.729c0-.106-.007-.214-.007-.321a.7.7,0,1,0-1.4,0c0,.126,0,.254.008.379a.7.7,0,0,0,.7.671h.03Zm5.552-.657A4.216,4.216,0,0,1,7,9.359a2.662,2.662,0,1,1,4.009,0,4.2,4.2,0,0,1,2.171,2.854A1.3,1.3,0,0,1,11.9,13.775H6.1a1.3,1.3,0,0,1-1.272-1.562A4.209,4.209,0,0,1,6.288,9.825ZM7.74,7.61A1.261,1.261,0,1,0,9,6.349,1.262,1.262,0,0,0,7.74,7.61ZM6.227,12.374h5.549a2.844,2.844,0,0,0-2.75-2.1H8.977a2.844,2.844,0,0,0-2.75,2.1Zm0,0" transform="translate(0.001 -0.5)" fill="#1d8295" opacity="0.5"/>
</svg>
